<?xml version="1.0" standalone="no"?>
<!DOCTYPE svg PUBLIC "-//W3C//DTD SVG 20010904//EN"
 "http://www.w3.org/TR/2001/REC-SVG-20010904/DTD/svg10.dtd">
<svg version="1.0" xmlns="http://www.w3.org/2000/svg"
 width="66.000000pt" height="40.000000pt" viewBox="0 0 66.000000 40.000000"
 preserveAspectRatio="xMidYMid meet">

<g transform="translate(0.000000,40.000000) scale(0.100000,-0.100000)"
fill="#000000" stroke="none">
<path d="M26 379 c-59 -46 -5 -96 114 -106 40 -3 74 -11 76 -17 2 -6 7 -63 11
-126 7 -102 10 -115 27 -118 18 -4 19 2 13 132 -5 129 -4 136 14 136 10 0 25
-12 33 -27 36 -70 118 -112 217 -113 77 0 119 24 119 66 0 61 -98 104 -238
104 l-84 0 4 25 c7 36 -18 32 -31 -5 -13 -40 -44 -39 -79 1 -31 37 -94 68
-138 69 -17 0 -43 -10 -58 -21z m106 -24 c14 -4 37 -18 50 -32 l23 -26 -72 5
c-68 5 -103 18 -103 40 0 12 41 28 60 23 8 -2 27 -7 42 -10z m363 -76 c103
-19 153 -59 118 -95 -23 -23 -123 -14 -182 16 -48 24 -94 68 -85 81 7 12 78
11 149 -2z"/>
</g>
</svg>
